<svg width="85" height="65" viewBox="0 0 85 65" fill="none" xmlns="http://www.w3.org/2000/svg">
<path d="M5.79561 64.6549H19.3182V31.814L0 17.3253V58.8596C0 62.0615 2.5935 64.6552 5.79561 64.6552V64.6549Z" fill="#4285F4"/>
<path d="M65.6818 64.6548H79.2046C82.4065 64.6548 85 62.0614 85 58.8594V17.3253L65.6818 31.814V64.6548Z" fill="#34A853"/>
<path d="M65.6818 6.70018V31.8139L85 17.3252V9.59798C85 2.43574 76.8237 -1.65489 71.0909 2.64342L65.6818 6.70018Z" fill="#FBBC04"/>
<path fill-rule="evenodd" clip-rule="evenodd" d="M19.3182 31.8138V6.70016L42.5 24.0866L65.6818 6.70016V31.8138L42.5 49.2002L19.3182 31.8138Z" fill="#EA4335"/>
<path d="M0 9.59796V17.3252L19.3182 31.8138V6.70015L13.9091 2.6434C8.17627 -1.65491 0 2.43571 0 9.59762V9.59796Z" fill="#C5221F"/>
</svg>
