<svg width="691" height="221" viewBox="0 0 691 221" fill="none" xmlns="http://www.w3.org/2000/svg">
<path d="M63.22 24.7555C67.14 24.7555 69.42 21.8155 69.42 17.8955C69.42 13.9755 67.14 10.9755 63.22 10.9755H57.88V24.7555H63.22ZM59.74 23.0155V12.7155H63.22C66.08 12.7155 67.56 14.9955 67.56 17.8955C67.56 20.7955 66.08 23.0155 63.22 23.0155H59.74ZM79.3927 24.7555H81.1927V15.4155H79.3927V16.8155C78.7527 15.7555 77.4127 15.2155 76.1127 15.2155C73.5527 15.2155 71.3727 17.0955 71.3727 20.0755C71.3727 23.0355 73.5527 24.9555 76.1127 24.9555C77.4127 24.9555 78.7727 24.3555 79.3927 23.3155V24.7555ZM79.3727 20.0555C79.3727 22.0355 77.9327 23.1755 76.2727 23.1755C74.5927 23.1755 73.2327 21.8955 73.2327 20.0555C73.2327 18.2155 74.5927 16.9955 76.2727 16.9955C77.7927 16.9955 79.3727 18.0555 79.3727 20.0555ZM86.7588 15.4155V11.8955H84.9388V15.4155H83.2588V16.9555H84.9388V24.7555H86.7588V16.9555H88.7388V15.4155H86.7588ZM98.0645 24.7555H99.8645V15.4155H98.0645V16.8155C97.4245 15.7555 96.0845 15.2155 94.7845 15.2155C92.2245 15.2155 90.0445 17.0955 90.0445 20.0755C90.0445 23.0355 92.2245 24.9555 94.7845 24.9555C96.0845 24.9555 97.4445 24.3555 98.0645 23.3155V24.7555ZM98.0445 20.0555C98.0445 22.0355 96.6045 23.1755 94.9445 23.1755C93.2645 23.1755 91.9045 21.8955 91.9045 20.0555C91.9045 18.2155 93.2645 16.9955 94.9445 16.9955C96.4645 16.9955 98.0445 18.0555 98.0445 20.0555ZM109.926 15.4155H108.106V29.2955H109.926V23.3555C110.566 24.4155 111.866 24.9555 113.186 24.9555C115.746 24.9555 117.866 23.0755 117.866 20.1155C117.866 17.1555 115.746 15.2155 113.186 15.2155C111.866 15.2155 110.566 15.8155 109.926 16.8755V15.4155ZM109.946 20.1355C109.946 18.1555 111.366 16.9955 113.006 16.9955C114.686 16.9955 116.026 18.2755 116.026 20.1355C116.026 21.9955 114.686 23.1755 113.006 23.1755C111.506 23.1755 109.946 22.1355 109.946 20.1355ZM122.113 21.3555C122.113 18.8755 122.873 16.9555 124.673 16.9555C125.053 16.9555 125.553 17.0355 126.053 17.2755L126.333 15.5755C126.073 15.3955 125.373 15.2155 124.713 15.2155C123.493 15.2155 122.593 15.8555 122.113 17.5155V15.4155H120.293V24.7555H122.113V21.3555ZM132.21 24.9555C134.87 24.9555 137.11 23.0155 137.11 20.0555C137.11 17.0955 134.87 15.2155 132.21 15.2155C129.55 15.2155 127.33 17.0955 127.33 20.0555C127.33 23.0155 129.55 24.9555 132.21 24.9555ZM132.21 23.1955C130.51 23.1955 129.13 21.9755 129.13 20.0555C129.13 18.1755 130.51 16.9955 132.21 16.9955C133.87 16.9955 135.29 18.1755 135.29 20.0555C135.29 21.9755 133.87 23.1955 132.21 23.1955ZM142.052 15.4155V11.8955H140.232V15.4155H138.552V16.9555H140.232V24.7555H142.052V16.9555H144.032V15.4155H142.052ZM147.158 19.3555C147.377 17.7755 148.578 16.8555 150.118 16.8555C151.638 16.8555 152.738 17.7755 152.958 19.3555H147.158ZM154.758 20.0555C154.758 17.0955 152.778 15.2155 150.118 15.2155C147.458 15.2155 145.338 17.0955 145.338 20.0555C145.338 23.0155 147.458 24.9555 150.118 24.9555C151.938 24.9555 153.618 24.1355 154.418 22.4755C153.918 22.2555 153.338 22.0955 152.858 21.8755C152.318 22.8155 151.298 23.3155 150.178 23.3155C148.578 23.3155 147.377 22.3555 147.158 20.7755H154.738C154.758 20.5555 154.758 20.2755 154.758 20.0555ZM156.451 20.0555C156.451 23.0155 158.731 24.9555 161.391 24.9555C162.831 24.9555 164.131 24.3955 165.011 23.4355L163.611 22.2755C163.051 22.8555 162.251 23.1955 161.391 23.1955C159.711 23.1955 158.251 21.9155 158.251 20.0555C158.251 18.1755 159.711 16.9955 161.391 16.9955C162.251 16.9955 163.051 17.3155 163.611 17.8755L164.991 16.7155C164.111 15.7555 162.831 15.2155 161.391 15.2155C158.731 15.2155 156.451 17.0955 156.451 20.0555ZM169.825 15.4155V11.8955H168.005V15.4155H166.325V16.9555H168.005V24.7555H169.825V16.9555H171.805V15.4155H169.825ZM175.668 15.4155H173.868V24.7555H175.668V15.4155ZM173.508 11.9755C173.508 12.6755 174.068 13.1555 174.768 13.1555C175.468 13.1555 176.028 12.6755 176.028 11.9755C176.028 11.2755 175.468 10.7955 174.768 10.7955C174.068 10.7955 173.508 11.2755 173.508 11.9755ZM182.971 24.9555C185.631 24.9555 187.871 23.0155 187.871 20.0555C187.871 17.0955 185.631 15.2155 182.971 15.2155C180.311 15.2155 178.091 17.0955 178.091 20.0555C178.091 23.0155 180.311 24.9555 182.971 24.9555ZM182.971 23.1955C181.271 23.1955 179.891 21.9755 179.891 20.0555C179.891 18.1755 181.271 16.9955 182.971 16.9955C184.631 16.9955 186.051 18.1755 186.051 20.0555C186.051 21.9755 184.631 23.1955 182.971 23.1955ZM192.113 19.7155C192.113 17.7355 193.433 16.9955 194.753 16.9955C196.033 16.9955 196.813 17.8955 196.813 19.4755V24.7555H198.633V19.3555C198.633 16.7155 197.373 15.2155 195.033 15.2155C194.013 15.2155 192.653 15.6955 192.113 16.8155V15.4155H190.293V24.7555H192.113V19.7155ZM214.158 24.7555H215.958V15.4155H214.158V16.8155C213.518 15.7555 212.178 15.2155 210.878 15.2155C208.318 15.2155 206.138 17.0955 206.138 20.0755C206.138 23.0355 208.318 24.9555 210.878 24.9555C212.178 24.9555 213.538 24.3555 214.158 23.3155V24.7555ZM214.138 20.0555C214.138 22.0355 212.698 23.1755 211.038 23.1755C209.358 23.1755 207.998 21.8955 207.998 20.0555C207.998 18.2155 209.358 16.9955 211.038 16.9955C212.558 16.9955 214.138 18.0555 214.138 20.0555ZM220.824 19.7155C220.824 17.7355 222.144 16.9955 223.464 16.9955C224.744 16.9955 225.524 17.8955 225.524 19.4755V24.7555H227.344V19.3555C227.344 16.7155 226.084 15.2155 223.744 15.2155C222.724 15.2155 221.364 15.6955 220.824 16.8155V15.4155H219.004V24.7555H220.824V19.7155ZM237.654 24.7555H239.474V10.3355H237.654V16.8155C237.034 15.7555 235.734 15.2155 234.354 15.2155C231.794 15.2155 229.654 17.0955 229.654 20.0755C229.654 23.0355 231.814 24.9555 234.374 24.9555C235.674 24.9555 237.034 24.3555 237.654 23.3155V24.7555ZM237.634 20.0555C237.634 22.0355 236.194 23.1755 234.534 23.1755C232.854 23.1755 231.514 21.8955 231.514 20.0555C231.514 18.2155 232.854 16.9955 234.534 16.9955C236.054 16.9955 237.634 18.0555 237.634 20.0555ZM247.095 20.0555C247.095 23.0155 249.375 24.9555 252.035 24.9555C253.475 24.9555 254.775 24.3955 255.655 23.4355L254.255 22.2755C253.695 22.8555 252.895 23.1955 252.035 23.1955C250.355 23.1955 248.895 21.9155 248.895 20.0555C248.895 18.1755 250.355 16.9955 252.035 16.9955C252.895 16.9955 253.695 17.3155 254.255 17.8755L255.635 16.7155C254.755 15.7555 253.475 15.2155 252.035 15.2155C249.375 15.2155 247.095 17.0955 247.095 20.0555ZM261.975 24.9555C264.635 24.9555 266.875 23.0155 266.875 20.0555C266.875 17.0955 264.635 15.2155 261.975 15.2155C259.315 15.2155 257.095 17.0955 257.095 20.0555C257.095 23.0155 259.315 24.9555 261.975 24.9555ZM261.975 23.1955C260.275 23.1955 258.895 21.9755 258.895 20.0555C258.895 18.1755 260.275 16.9955 261.975 16.9955C263.635 16.9955 265.055 18.1755 265.055 20.0555C265.055 21.9755 263.635 23.1955 261.975 23.1955ZM271.117 19.7155C271.117 17.7355 272.437 16.9955 273.757 16.9955C275.037 16.9955 275.817 17.8955 275.817 19.4755V24.7555H277.637V19.3555C277.637 16.7155 276.377 15.2155 274.037 15.2155C273.017 15.2155 271.657 15.6955 271.117 16.8155V15.4155H269.297V24.7555H271.117V19.7155ZM283.087 15.4155V11.8955H281.267V15.4155H279.587V16.9555H281.267V24.7555H283.087V16.9555H285.067V15.4155H283.087ZM288.949 21.3555C288.949 18.8755 289.709 16.9555 291.509 16.9555C291.889 16.9555 292.389 17.0355 292.889 17.2755L293.169 15.5755C292.909 15.3955 292.209 15.2155 291.549 15.2155C290.329 15.2155 289.429 15.8555 288.949 17.5155V15.4155H287.129V24.7555H288.949V21.3555ZM299.046 24.9555C301.706 24.9555 303.946 23.0155 303.946 20.0555C303.946 17.0955 301.706 15.2155 299.046 15.2155C296.386 15.2155 294.166 17.0955 294.166 20.0555C294.166 23.0155 296.386 24.9555 299.046 24.9555ZM299.046 23.1955C297.346 23.1955 295.966 21.9755 295.966 20.0555C295.966 18.1755 297.346 16.9955 299.046 16.9955C300.706 16.9955 302.126 18.1755 302.126 20.0555C302.126 21.9755 300.706 23.1955 299.046 23.1955ZM306.368 10.3355V24.7555H308.188V10.3355H306.368Z" fill="white" fill-opacity="0.9"/>
<path d="M63.66 71.78C66.24 71.56 67.26 69.58 67.26 67.54C67.26 65.38 66.08 63.22 63.18 63.22H57.88V77H59.76V71.84H61.52L65.08 77H67.34L63.66 71.78ZM63.12 64.96C64.72 64.96 65.34 66.28 65.34 67.54C65.34 68.82 64.72 70.1 63.04 70.1H59.76V64.96H63.12ZM70.6731 71.6C70.8931 70.02 72.0931 69.1 73.6331 69.1C75.1531 69.1 76.2531 70.02 76.4731 71.6H70.6731ZM78.2731 72.3C78.2731 69.34 76.2931 67.46 73.6331 67.46C70.9731 67.46 68.8531 69.34 68.8531 72.3C68.8531 75.26 70.9731 77.2 73.6331 77.2C75.4531 77.2 77.1331 76.38 77.9331 74.72C77.4331 74.5 76.8531 74.34 76.3731 74.12C75.8331 75.06 74.8131 75.56 73.6931 75.56C72.0931 75.56 70.8931 74.6 70.6731 73.02H78.2531C78.2731 72.8 78.2731 72.52 78.2731 72.3ZM82.4064 67.66H80.5864V81.54H82.4064V75.6C83.0464 76.66 84.3464 77.2 85.6664 77.2C88.2264 77.2 90.3464 75.32 90.3464 72.36C90.3464 69.4 88.2264 67.46 85.6664 67.46C84.3464 67.46 83.0464 68.06 82.4064 69.12V67.66ZM82.4264 72.38C82.4264 70.4 83.8464 69.24 85.4864 69.24C87.1664 69.24 88.5064 70.52 88.5064 72.38C88.5064 74.24 87.1664 75.42 85.4864 75.42C83.9864 75.42 82.4264 74.38 82.4264 72.38ZM97.0339 77.2C99.6939 77.2 101.934 75.26 101.934 72.3C101.934 69.34 99.6939 67.46 97.0339 67.46C94.3739 67.46 92.1539 69.34 92.1539 72.3C92.1539 75.26 94.3739 77.2 97.0339 77.2ZM97.0339 75.44C95.3339 75.44 93.9539 74.22 93.9539 72.3C93.9539 70.42 95.3339 69.24 97.0339 69.24C98.6939 69.24 100.114 70.42 100.114 72.3C100.114 74.22 98.6939 75.44 97.0339 75.44ZM106.176 73.6C106.176 71.12 106.936 69.2 108.736 69.2C109.116 69.2 109.616 69.28 110.116 69.52L110.396 67.82C110.136 67.64 109.436 67.46 108.776 67.46C107.556 67.46 106.656 68.1 106.176 69.76V67.66H104.356V77H106.176V73.6ZM114.767 67.66V64.14H112.947V67.66H111.267V69.2H112.947V77H114.767V69.2H116.747V67.66H114.767ZM120.609 67.66H118.809V77H120.609V67.66ZM118.449 64.22C118.449 64.92 119.009 65.4 119.709 65.4C120.409 65.4 120.969 64.92 120.969 64.22C120.969 63.52 120.409 63.04 119.709 63.04C119.009 63.04 118.449 63.52 118.449 64.22ZM125.473 71.96C125.473 69.98 126.793 69.24 128.113 69.24C129.393 69.24 130.173 70.14 130.173 71.72V77H131.993V71.6C131.993 68.96 130.733 67.46 128.393 67.46C127.373 67.46 126.013 67.94 125.473 69.06V67.66H123.653V77H125.473V71.96ZM136.322 78.34C136.082 78.44 135.022 79.02 134.802 79.14C135.702 80.8 137.282 81.66 139.022 81.66C142.122 81.66 144.122 79.98 144.122 75.58V67.66H142.322V69.12C141.682 68.06 140.342 67.46 139.042 67.46C136.482 67.46 134.302 69.4 134.302 72.36C134.302 75.32 136.482 77.2 139.042 77.2C140.362 77.2 141.742 76.6 142.322 75.48C142.322 75.56 142.342 75.62 142.342 75.7C142.342 78.8 141.042 79.94 139.022 79.94C137.982 79.94 136.882 79.38 136.322 78.34ZM142.302 72.34C142.302 74.34 140.722 75.42 139.202 75.42C137.522 75.42 136.162 74.26 136.162 72.34C136.162 70.52 137.522 69.24 139.202 69.24C140.862 69.24 142.302 70.34 142.302 72.34ZM159.744 77H161.544V67.66H159.744V69.06C159.104 68 157.764 67.46 156.464 67.46C153.904 67.46 151.724 69.34 151.724 72.32C151.724 75.28 153.904 77.2 156.464 77.2C157.764 77.2 159.124 76.6 159.744 75.56V77ZM159.724 72.3C159.724 74.28 158.284 75.42 156.624 75.42C154.944 75.42 153.584 74.14 153.584 72.3C153.584 70.46 154.944 69.24 156.624 69.24C158.144 69.24 159.724 70.3 159.724 72.3ZM166.41 71.96C166.41 69.98 167.73 69.24 169.05 69.24C170.33 69.24 171.11 70.14 171.11 71.72V77H172.93V71.6C172.93 68.96 171.67 67.46 169.33 67.46C168.31 67.46 166.95 67.94 166.41 69.06V67.66H164.59V77H166.41V71.96ZM183.24 77H185.06V62.58H183.24V69.06C182.62 68 181.32 67.46 179.94 67.46C177.38 67.46 175.24 69.34 175.24 72.32C175.24 75.28 177.4 77.2 179.96 77.2C181.26 77.2 182.62 76.6 183.24 75.56V77ZM183.22 72.3C183.22 74.28 181.78 75.42 180.12 75.42C178.44 75.42 177.1 74.14 177.1 72.3C177.1 70.46 178.44 69.24 180.12 69.24C181.64 69.24 183.22 70.3 183.22 72.3ZM200.701 77H202.501V67.66H200.701V69.06C200.061 68 198.721 67.46 197.421 67.46C194.861 67.46 192.681 69.34 192.681 72.32C192.681 75.28 194.861 77.2 197.421 77.2C198.721 77.2 200.081 76.6 200.701 75.56V77ZM200.681 72.3C200.681 74.28 199.241 75.42 197.581 75.42C195.901 75.42 194.541 74.14 194.541 72.3C194.541 70.46 195.901 69.24 197.581 69.24C199.101 69.24 200.681 70.3 200.681 72.3ZM207.367 71.96C207.367 69.98 208.687 69.24 210.007 69.24C211.287 69.24 212.067 70.14 212.067 71.72V77H213.887V71.6C213.887 68.96 212.627 67.46 210.287 67.46C209.267 67.46 207.907 67.94 207.367 69.06V67.66H205.547V77H207.367V71.96ZM224.217 77H226.017V67.66H224.217V69.06C223.577 68 222.237 67.46 220.937 67.46C218.377 67.46 216.197 69.34 216.197 72.32C216.197 75.28 218.377 77.2 220.937 77.2C222.237 77.2 223.597 76.6 224.217 75.56V77ZM224.197 72.3C224.197 74.28 222.757 75.42 221.097 75.42C219.417 75.42 218.057 74.14 218.057 72.3C218.057 70.46 219.417 69.24 221.097 69.24C222.617 69.24 224.197 70.3 224.197 72.3ZM229.063 62.58V77H230.883V62.58H229.063ZM236.446 81.54L242.246 67.66H240.306L237.506 74.42L234.706 67.66H232.766L236.506 76.72L234.546 81.54H236.446ZM246.622 67.66V64.14H244.802V67.66H243.122V69.2H244.802V77H246.622V69.2H248.602V67.66H246.622ZM252.465 67.66H250.665V77H252.465V67.66ZM250.305 64.22C250.305 64.92 250.865 65.4 251.565 65.4C252.265 65.4 252.825 64.92 252.825 64.22C252.825 63.52 252.265 63.04 251.565 63.04C250.865 63.04 250.305 63.52 250.305 64.22ZM254.888 72.3C254.888 75.26 257.168 77.2 259.828 77.2C261.268 77.2 262.568 76.64 263.448 75.68L262.048 74.52C261.488 75.1 260.688 75.44 259.828 75.44C258.148 75.44 256.688 74.16 256.688 72.3C256.688 70.42 258.148 69.24 259.828 69.24C260.688 69.24 261.488 69.56 262.048 70.12L263.428 68.96C262.548 68 261.268 67.46 259.828 67.46C257.168 67.46 254.888 69.34 254.888 72.3ZM269.045 73.18C269.745 73.34 270.305 73.66 270.285 74.36C270.265 75.06 269.725 75.52 268.865 75.58C268.285 75.62 267.805 75.52 267.385 75.26C266.925 75.04 266.685 74.6 266.625 74.2H264.965C265.025 76.12 266.765 77.2 268.445 77.2C270.385 77.2 272.065 76.16 272.065 74.4C272.065 73.34 271.565 72.16 269.645 71.68L268.265 71.34C267.785 71.2 267.345 71 267.165 70.62C267.065 70.42 267.065 70.18 267.145 69.88C267.285 69.38 267.845 69.04 268.545 69.04C269.265 69.04 269.905 69.4 270.005 70.1H271.745C271.585 68.2 270.085 67.46 268.505 67.46C266.825 67.46 265.425 68.48 265.265 69.84C265.105 71.58 266.065 72.42 267.765 72.88L269.045 73.18Z" fill="white" fill-opacity="0.9"/>
<path d="M62.78 126.972C61.08 126.972 59.62 125.752 59.62 123.832V114.792H57.74V123.832C57.74 126.832 60.04 128.772 62.78 128.772C65.48 128.772 67.82 126.832 67.82 123.832V114.792H65.94V123.832C65.94 125.752 64.48 126.972 62.78 126.972ZM74.2794 124.752C74.9794 124.912 75.5394 125.232 75.5194 125.932C75.4994 126.632 74.9594 127.092 74.0994 127.152C73.5194 127.192 73.0394 127.092 72.6194 126.832C72.1594 126.612 71.9194 126.172 71.8594 125.772H70.1994C70.2594 127.692 71.9994 128.772 73.6794 128.772C75.6194 128.772 77.2994 127.732 77.2994 125.972C77.2994 124.912 76.7994 123.732 74.8794 123.252L73.4994 122.912C73.0194 122.772 72.5794 122.572 72.3994 122.192C72.2994 121.992 72.2994 121.752 72.3794 121.452C72.5194 120.952 73.0794 120.612 73.7794 120.612C74.4994 120.612 75.1394 120.972 75.2394 121.672H76.9794C76.8194 119.772 75.3194 119.032 73.7394 119.032C72.0594 119.032 70.6594 120.052 70.4994 121.412C70.3394 123.152 71.2994 123.992 72.9994 124.452L74.2794 124.752ZM80.8684 123.172C81.0884 121.592 82.2884 120.672 83.8284 120.672C85.3484 120.672 86.4484 121.592 86.6684 123.172H80.8684ZM88.4684 123.872C88.4684 120.912 86.4884 119.032 83.8284 119.032C81.1684 119.032 79.0484 120.912 79.0484 123.872C79.0484 126.832 81.1684 128.772 83.8284 128.772C85.6484 128.772 87.3284 127.952 88.1284 126.292C87.6284 126.072 87.0484 125.912 86.5684 125.692C86.0284 126.632 85.0084 127.132 83.8884 127.132C82.2884 127.132 81.0884 126.172 80.8684 124.592H88.4484C88.4684 124.372 88.4684 124.092 88.4684 123.872ZM99.377 124.752C100.077 124.912 100.637 125.232 100.617 125.932C100.597 126.632 100.057 127.092 99.197 127.152C98.617 127.192 98.137 127.092 97.717 126.832C97.257 126.612 97.017 126.172 96.957 125.772H95.297C95.357 127.692 97.097 128.772 98.777 128.772C100.717 128.772 102.397 127.732 102.397 125.972C102.397 124.912 101.897 123.732 99.977 123.252L98.597 122.912C98.117 122.772 97.677 122.572 97.497 122.192C97.397 121.992 97.397 121.752 97.477 121.452C97.617 120.952 98.177 120.612 98.877 120.612C99.597 120.612 100.237 120.972 100.337 121.672H102.077C101.917 119.772 100.417 119.032 98.837 119.032C97.157 119.032 95.757 120.052 95.597 121.412C95.437 123.152 96.397 123.992 98.097 124.452L99.377 124.752ZM106.566 119.232H104.766V128.572H106.566V119.232ZM104.406 115.792C104.406 116.492 104.966 116.972 105.666 116.972C106.366 116.972 106.926 116.492 106.926 115.792C106.926 115.092 106.366 114.612 105.666 114.612C104.966 114.612 104.406 115.092 104.406 115.792ZM111.43 123.532C111.43 121.552 112.75 120.812 114.07 120.812C115.35 120.812 116.13 121.712 116.13 123.292V128.572H117.95V123.172C117.95 120.532 116.69 119.032 114.35 119.032C113.33 119.032 111.97 119.512 111.43 120.632V119.232H109.61V128.572H111.43V123.532ZM122.279 129.912C122.039 130.012 120.979 130.592 120.759 130.712C121.659 132.372 123.239 133.232 124.979 133.232C128.079 133.232 130.079 131.552 130.079 127.152V119.232H128.279V120.692C127.639 119.632 126.299 119.032 124.999 119.032C122.439 119.032 120.259 120.972 120.259 123.932C120.259 126.892 122.439 128.772 124.999 128.772C126.319 128.772 127.699 128.172 128.279 127.052C128.279 127.132 128.299 127.192 128.299 127.272C128.299 130.372 126.999 131.512 124.979 131.512C123.939 131.512 122.839 130.952 122.279 129.912ZM128.259 123.912C128.259 125.912 126.679 126.992 125.159 126.992C123.479 126.992 122.119 125.832 122.119 123.912C122.119 122.092 123.479 120.812 125.159 120.812C126.819 120.812 128.259 121.912 128.259 123.912ZM133.106 114.152V128.572H134.926V114.152H133.106ZM139.169 123.172C139.389 121.592 140.589 120.672 142.129 120.672C143.649 120.672 144.749 121.592 144.969 123.172H139.169ZM146.769 123.872C146.769 120.912 144.789 119.032 142.129 119.032C139.469 119.032 137.349 120.912 137.349 123.872C137.349 126.832 139.469 128.772 142.129 128.772C143.949 128.772 145.629 127.952 146.429 126.292C145.929 126.072 145.349 125.912 144.869 125.692C144.329 126.632 143.309 127.132 142.189 127.132C140.589 127.132 139.389 126.172 139.169 124.592H146.749C146.769 124.372 146.769 124.092 146.769 123.872ZM157.678 124.752C158.378 124.912 158.938 125.232 158.918 125.932C158.898 126.632 158.358 127.092 157.498 127.152C156.918 127.192 156.438 127.092 156.018 126.832C155.558 126.612 155.318 126.172 155.258 125.772H153.598C153.658 127.692 155.398 128.772 157.078 128.772C159.018 128.772 160.698 127.732 160.698 125.972C160.698 124.912 160.198 123.732 158.278 123.252L156.898 122.912C156.418 122.772 155.978 122.572 155.798 122.192C155.698 121.992 155.698 121.752 155.778 121.452C155.918 120.952 156.478 120.612 157.178 120.612C157.898 120.612 158.538 120.972 158.638 121.672H160.378C160.218 119.772 158.718 119.032 157.138 119.032C155.458 119.032 154.058 120.052 153.898 121.412C153.738 123.152 154.698 123.992 156.398 124.452L157.678 124.752ZM164.867 119.232H163.067V128.572H164.867V119.232ZM162.707 115.792C162.707 116.492 163.267 116.972 163.967 116.972C164.667 116.972 165.227 116.492 165.227 115.792C165.227 115.092 164.667 114.612 163.967 114.612C163.267 114.612 162.707 115.092 162.707 115.792ZM169.311 129.912C169.071 130.012 168.011 130.592 167.791 130.712C168.691 132.372 170.271 133.232 172.011 133.232C175.111 133.232 177.111 131.552 177.111 127.152V119.232H175.311V120.692C174.671 119.632 173.331 119.032 172.031 119.032C169.471 119.032 167.291 120.972 167.291 123.932C167.291 126.892 169.471 128.772 172.031 128.772C173.351 128.772 174.731 128.172 175.311 127.052C175.311 127.132 175.331 127.192 175.331 127.272C175.331 130.372 174.031 131.512 172.011 131.512C170.971 131.512 169.871 130.952 169.311 129.912ZM175.291 123.912C175.291 125.912 173.711 126.992 172.191 126.992C170.511 126.992 169.151 125.832 169.151 123.912C169.151 122.092 170.511 120.812 172.191 120.812C173.851 120.812 175.291 121.912 175.291 123.912ZM181.957 123.532C181.957 121.552 183.277 120.812 184.597 120.812C185.877 120.812 186.657 121.712 186.657 123.292V128.572H188.477V123.172C188.477 120.532 187.217 119.032 184.877 119.032C183.857 119.032 182.497 119.512 181.957 120.632V119.232H180.137V128.572H181.957V123.532ZM191.267 123.032V124.772H198.227V123.032H191.267ZM205.393 128.772C208.053 128.772 210.293 126.832 210.293 123.872C210.293 120.912 208.053 119.032 205.393 119.032C202.733 119.032 200.513 120.912 200.513 123.872C200.513 126.832 202.733 128.772 205.393 128.772ZM205.393 127.012C203.693 127.012 202.313 125.792 202.313 123.872C202.313 121.992 203.693 120.812 205.393 120.812C207.053 120.812 208.473 121.992 208.473 123.872C208.473 125.792 207.053 127.012 205.393 127.012ZM214.535 123.532C214.535 121.552 215.855 120.812 217.175 120.812C218.455 120.812 219.235 121.712 219.235 123.292V128.572H221.055V123.172C221.055 120.532 219.795 119.032 217.455 119.032C216.435 119.032 215.075 119.512 214.535 120.632V119.232H212.715V128.572H214.535V123.532ZM236.58 128.572H238.38V119.232H236.58V120.632C235.94 119.572 234.6 119.032 233.3 119.032C230.74 119.032 228.56 120.912 228.56 123.892C228.56 126.852 230.74 128.772 233.3 128.772C234.6 128.772 235.96 128.172 236.58 127.132V128.572ZM236.56 123.872C236.56 125.852 235.12 126.992 233.46 126.992C231.78 126.992 230.42 125.712 230.42 123.872C230.42 122.032 231.78 120.812 233.46 120.812C234.98 120.812 236.56 121.872 236.56 123.872ZM243.246 123.532C243.246 121.552 244.566 120.812 245.886 120.812C247.166 120.812 247.946 121.712 247.946 123.292V128.572H249.766V123.172C249.766 120.532 248.506 119.032 246.166 119.032C245.146 119.032 243.786 119.512 243.246 120.632V119.232H241.426V128.572H243.246V123.532ZM260.076 128.572H261.896V114.152H260.076V120.632C259.456 119.572 258.156 119.032 256.776 119.032C254.216 119.032 252.076 120.912 252.076 123.892C252.076 126.852 254.236 128.772 256.796 128.772C258.096 128.772 259.456 128.172 260.076 127.132V128.572ZM260.056 123.872C260.056 125.852 258.616 126.992 256.956 126.992C255.276 126.992 253.936 125.712 253.936 123.872C253.936 122.032 255.276 120.812 256.956 120.812C258.476 120.812 260.056 121.872 260.056 123.872ZM280.877 120.812C282.237 120.812 283.017 121.752 283.017 123.292V128.572H284.837V123.172C284.837 120.532 283.577 119.032 281.237 119.032C280.337 119.032 278.857 119.292 277.997 120.952C277.557 119.932 276.737 119.312 275.557 119.132C275.237 119.072 274.897 119.052 274.537 119.072C273.777 119.132 272.437 119.592 271.957 120.632V119.232H270.137V128.572H271.957V123.532C271.957 121.572 273.257 120.812 274.557 120.812C275.777 120.812 276.577 121.732 276.577 123.272V128.572H278.397V123.532C278.397 121.972 279.337 120.812 280.877 120.812ZM294.134 124.272C294.134 126.272 292.814 126.992 291.494 126.992C290.214 126.992 289.454 126.092 289.454 124.512V119.232H287.634V124.632C287.614 127.272 288.894 128.772 291.234 128.772C292.254 128.772 293.554 128.292 294.134 127.172V128.572H295.954V119.232H294.134V124.272ZM298.985 114.152V128.572H300.805V114.152H298.985ZM306.368 119.232V115.712H304.548V119.232H302.868V120.772H304.548V128.572H306.368V120.772H308.348V119.232H306.368ZM312.211 119.232H310.411V128.572H312.211V119.232ZM310.051 115.792C310.051 116.492 310.611 116.972 311.311 116.972C312.011 116.972 312.571 116.492 312.571 115.792C312.571 115.092 312.011 114.612 311.311 114.612C310.611 114.612 310.051 115.092 310.051 115.792ZM315.114 123.032V124.772H322.074V123.032H315.114ZM330.088 114.152H329.068C326.548 114.152 325.488 115.832 325.488 118.292V119.232H323.688V120.772H325.488V128.572H327.328V120.772H329.488V119.232H327.328V118.292C327.328 117.092 327.548 115.892 329.068 115.892H330.088V114.152ZM338.787 128.572H340.587V119.232H338.787V120.632C338.147 119.572 336.807 119.032 335.507 119.032C332.947 119.032 330.767 120.912 330.767 123.892C330.767 126.852 332.947 128.772 335.507 128.772C336.807 128.772 338.167 128.172 338.787 127.132V128.572ZM338.767 123.872C338.767 125.852 337.327 126.992 335.667 126.992C333.987 126.992 332.627 125.712 332.627 123.872C332.627 122.032 333.987 120.812 335.667 120.812C337.187 120.812 338.767 121.872 338.767 123.872ZM343.013 123.872C343.013 126.832 345.293 128.772 347.953 128.772C349.393 128.772 350.693 128.212 351.573 127.252L350.173 126.092C349.613 126.672 348.813 127.012 347.953 127.012C346.273 127.012 344.813 125.732 344.813 123.872C344.813 121.992 346.273 120.812 347.953 120.812C348.813 120.812 349.613 121.132 350.173 121.692L351.553 120.532C350.673 119.572 349.393 119.032 347.953 119.032C345.293 119.032 343.013 120.912 343.013 123.872ZM356.388 119.232V115.712H354.568V119.232H352.888V120.772H354.568V128.572H356.388V120.772H358.368V119.232H356.388ZM364.553 128.772C367.213 128.772 369.453 126.832 369.453 123.872C369.453 120.912 367.213 119.032 364.553 119.032C361.893 119.032 359.673 120.912 359.673 123.872C359.673 126.832 361.893 128.772 364.553 128.772ZM364.553 127.012C362.853 127.012 361.473 125.792 361.473 123.872C361.473 121.992 362.853 120.812 364.553 120.812C366.213 120.812 367.633 121.992 367.633 123.872C367.633 125.792 366.213 127.012 364.553 127.012ZM373.695 125.172C373.695 122.692 374.455 120.772 376.255 120.772C376.635 120.772 377.135 120.852 377.635 121.092L377.915 119.392C377.655 119.212 376.955 119.032 376.295 119.032C375.075 119.032 374.175 119.672 373.695 121.332V119.232H371.875V128.572H373.695V125.172ZM391.873 128.572H393.673V119.232H391.873V120.632C391.233 119.572 389.893 119.032 388.593 119.032C386.033 119.032 383.853 120.912 383.853 123.892C383.853 126.852 386.033 128.772 388.593 128.772C389.893 128.772 391.253 128.172 391.873 127.132V128.572ZM391.853 123.872C391.853 125.852 390.413 126.992 388.753 126.992C387.073 126.992 385.713 125.712 385.713 123.872C385.713 122.032 387.073 120.812 388.753 120.812C390.273 120.812 391.853 121.872 391.853 123.872ZM403.099 124.272C403.099 126.272 401.779 126.992 400.459 126.992C399.179 126.992 398.419 126.092 398.419 124.512V119.232H396.599V124.632C396.579 127.272 397.859 128.772 400.199 128.772C401.219 128.772 402.519 128.292 403.099 127.172V128.572H404.919V119.232H403.099V124.272ZM410.47 119.232V115.712H408.65V119.232H406.97V120.772H408.65V128.572H410.47V120.772H412.45V119.232H410.47ZM416.332 123.532C416.332 121.532 417.892 120.812 419.172 120.812C420.452 120.812 421.372 121.752 421.372 123.292V128.572H423.192V123.172C423.212 120.532 421.752 119.032 419.412 119.032C418.412 119.032 416.872 119.512 416.332 120.632V114.152H414.512V128.572H416.332V123.532ZM427.314 123.172C427.534 121.592 428.734 120.672 430.274 120.672C431.794 120.672 432.894 121.592 433.114 123.172H427.314ZM434.914 123.872C434.914 120.912 432.934 119.032 430.274 119.032C427.614 119.032 425.494 120.912 425.494 123.872C425.494 126.832 427.614 128.772 430.274 128.772C432.094 128.772 433.774 127.952 434.574 126.292C434.074 126.072 433.494 125.912 433.014 125.692C432.474 126.632 431.454 127.132 430.334 127.132C428.734 127.132 427.534 126.172 427.314 124.592H434.894C434.914 124.372 434.914 124.092 434.914 123.872ZM439.047 123.532C439.047 121.552 440.367 120.812 441.687 120.812C442.967 120.812 443.747 121.712 443.747 123.292V128.572H445.567V123.172C445.567 120.532 444.307 119.032 441.967 119.032C440.947 119.032 439.587 119.512 439.047 120.632V119.232H437.227V128.572H439.047V123.532ZM451.017 119.232V115.712H449.197V119.232H447.517V120.772H449.197V128.572H451.017V120.772H452.997V119.232H451.017ZM456.859 119.232H455.059V128.572H456.859V119.232ZM454.699 115.792C454.699 116.492 455.259 116.972 455.959 116.972C456.659 116.972 457.219 116.492 457.219 115.792C457.219 115.092 456.659 114.612 455.959 114.612C455.259 114.612 454.699 115.092 454.699 115.792ZM459.283 123.872C459.283 126.832 461.563 128.772 464.223 128.772C465.663 128.772 466.963 128.212 467.843 127.252L466.443 126.092C465.883 126.672 465.083 127.012 464.223 127.012C462.543 127.012 461.083 125.732 461.083 123.872C461.083 121.992 462.543 120.812 464.223 120.812C465.083 120.812 465.883 121.132 466.443 121.692L467.823 120.532C466.943 119.572 465.663 119.032 464.223 119.032C461.563 119.032 459.283 120.912 459.283 123.872ZM477.303 128.572H479.103V119.232H477.303V120.632C476.663 119.572 475.323 119.032 474.023 119.032C471.463 119.032 469.283 120.912 469.283 123.892C469.283 126.852 471.463 128.772 474.023 128.772C475.323 128.772 476.683 128.172 477.303 127.132V128.572ZM477.283 123.872C477.283 125.852 475.843 126.992 474.183 126.992C472.503 126.992 471.143 125.712 471.143 123.872C471.143 122.032 472.503 120.812 474.183 120.812C475.703 120.812 477.283 121.872 477.283 123.872ZM484.669 119.232V115.712H482.849V119.232H481.169V120.772H482.849V128.572H484.669V120.772H486.649V119.232H484.669ZM490.511 119.232H488.711V128.572H490.511V119.232ZM488.351 115.792C488.351 116.492 488.911 116.972 489.611 116.972C490.311 116.972 490.871 116.492 490.871 115.792C490.871 115.092 490.311 114.612 489.611 114.612C488.911 114.612 488.351 115.092 488.351 115.792ZM497.815 128.772C500.475 128.772 502.715 126.832 502.715 123.872C502.715 120.912 500.475 119.032 497.815 119.032C495.155 119.032 492.935 120.912 492.935 123.872C492.935 126.832 495.155 128.772 497.815 128.772ZM497.815 127.012C496.115 127.012 494.735 125.792 494.735 123.872C494.735 121.992 496.115 120.812 497.815 120.812C499.475 120.812 500.895 121.992 500.895 123.872C500.895 125.792 499.475 127.012 497.815 127.012ZM506.957 123.532C506.957 121.552 508.277 120.812 509.597 120.812C510.877 120.812 511.657 121.712 511.657 123.292V128.572H513.477V123.172C513.477 120.532 512.217 119.032 509.877 119.032C508.857 119.032 507.497 119.512 506.957 120.632V119.232H505.137V128.572H506.957V123.532ZM524.122 119.232V115.712H522.302V119.232H520.622V120.772H522.302V128.572H524.122V120.772H526.102V119.232H524.122ZM532.288 128.772C534.948 128.772 537.188 126.832 537.188 123.872C537.188 120.912 534.948 119.032 532.288 119.032C529.628 119.032 527.408 120.912 527.408 123.872C527.408 126.832 529.628 128.772 532.288 128.772ZM532.288 127.012C530.588 127.012 529.208 125.792 529.208 123.872C529.208 121.992 530.588 120.812 532.288 120.812C533.948 120.812 535.368 121.992 535.368 123.872C535.368 125.792 533.948 127.012 532.288 127.012ZM548.205 124.752C548.905 124.912 549.465 125.232 549.445 125.932C549.425 126.632 548.885 127.092 548.025 127.152C547.445 127.192 546.965 127.092 546.545 126.832C546.085 126.612 545.845 126.172 545.785 125.772H544.125C544.185 127.692 545.925 128.772 547.605 128.772C549.545 128.772 551.225 127.732 551.225 125.972C551.225 124.912 550.725 123.732 548.805 123.252L547.425 122.912C546.945 122.772 546.505 122.572 546.325 122.192C546.225 121.992 546.225 121.752 546.305 121.452C546.445 120.952 547.005 120.612 547.705 120.612C548.425 120.612 549.065 120.972 549.165 121.672H550.905C550.745 119.772 549.245 119.032 547.665 119.032C545.985 119.032 544.585 120.052 544.425 121.412C544.265 123.152 545.225 123.992 546.925 124.452L548.205 124.752ZM554.794 123.172C555.014 121.592 556.214 120.672 557.754 120.672C559.274 120.672 560.374 121.592 560.594 123.172H554.794ZM562.394 123.872C562.394 120.912 560.414 119.032 557.754 119.032C555.094 119.032 552.974 120.912 552.974 123.872C552.974 126.832 555.094 128.772 557.754 128.772C559.574 128.772 561.254 127.952 562.054 126.292C561.554 126.072 560.974 125.912 560.494 125.692C559.954 126.632 558.934 127.132 557.814 127.132C556.214 127.132 555.014 126.172 554.794 124.592H562.374C562.394 124.372 562.394 124.092 562.394 123.872ZM564.088 123.872C564.088 126.832 566.368 128.772 569.028 128.772C570.468 128.772 571.768 128.212 572.648 127.252L571.248 126.092C570.688 126.672 569.888 127.012 569.028 127.012C567.348 127.012 565.888 125.732 565.888 123.872C565.888 121.992 567.348 120.812 569.028 120.812C569.888 120.812 570.688 121.132 571.248 121.692L572.628 120.532C571.748 119.572 570.468 119.032 569.028 119.032C566.368 119.032 564.088 120.912 564.088 123.872ZM581.322 124.272C581.322 126.272 580.002 126.992 578.682 126.992C577.402 126.992 576.642 126.092 576.642 124.512V119.232H574.822V124.632C574.802 127.272 576.082 128.772 578.422 128.772C579.442 128.772 580.742 128.292 581.322 127.172V128.572H583.142V119.232H581.322V124.272ZM587.992 125.172C587.992 122.692 588.752 120.772 590.552 120.772C590.932 120.772 591.432 120.852 591.932 121.092L592.212 119.392C591.952 119.212 591.252 119.032 590.592 119.032C589.372 119.032 588.472 119.672 587.992 121.332V119.232H586.172V128.572H587.992V125.172ZM595.029 123.172C595.249 121.592 596.449 120.672 597.989 120.672C599.509 120.672 600.609 121.592 600.829 123.172H595.029ZM602.629 123.872C602.629 120.912 600.649 119.032 597.989 119.032C595.329 119.032 593.209 120.912 593.209 123.872C593.209 126.832 595.329 128.772 597.989 128.772C599.809 128.772 601.489 127.952 602.289 126.292C601.789 126.072 601.209 125.912 600.729 125.692C600.189 126.632 599.169 127.132 598.049 127.132C596.449 127.132 595.249 126.172 595.029 124.592H602.609C602.629 124.372 602.629 124.092 602.629 123.872ZM617.537 128.572H619.337V119.232H617.537V120.632C616.897 119.572 615.557 119.032 614.257 119.032C611.697 119.032 609.517 120.912 609.517 123.892C609.517 126.852 611.697 128.772 614.257 128.772C615.557 128.772 616.917 128.172 617.537 127.132V128.572ZM617.517 123.872C617.517 125.852 616.077 126.992 614.417 126.992C612.737 126.992 611.377 125.712 611.377 123.872C611.377 122.032 612.737 120.812 614.417 120.812C615.937 120.812 617.517 121.872 617.517 123.872ZM621.763 123.872C621.763 126.832 624.043 128.772 626.703 128.772C628.143 128.772 629.443 128.212 630.323 127.252L628.923 126.092C628.363 126.672 627.563 127.012 626.703 127.012C625.023 127.012 623.563 125.732 623.563 123.872C623.563 121.992 625.023 120.812 626.703 120.812C627.563 120.812 628.363 121.132 628.923 121.692L630.303 120.532C629.423 119.572 628.143 119.032 626.703 119.032C624.043 119.032 621.763 120.912 621.763 123.872ZM631.763 123.872C631.763 126.832 634.043 128.772 636.703 128.772C638.143 128.772 639.443 128.212 640.323 127.252L638.923 126.092C638.363 126.672 637.563 127.012 636.703 127.012C635.023 127.012 633.563 125.732 633.563 123.872C633.563 121.992 635.023 120.812 636.703 120.812C637.563 120.812 638.363 121.132 638.923 121.692L640.303 120.532C639.423 119.572 638.143 119.032 636.703 119.032C634.043 119.032 631.763 120.912 631.763 123.872ZM646.643 128.772C649.303 128.772 651.543 126.832 651.543 123.872C651.543 120.912 649.303 119.032 646.643 119.032C643.983 119.032 641.763 120.912 641.763 123.872C641.763 126.832 643.983 128.772 646.643 128.772ZM646.643 127.012C644.943 127.012 643.563 125.792 643.563 123.872C643.563 121.992 644.943 120.812 646.643 120.812C648.303 120.812 649.723 121.992 649.723 123.872C649.723 125.792 648.303 127.012 646.643 127.012ZM660.345 124.272C660.345 126.272 659.025 126.992 657.705 126.992C656.425 126.992 655.665 126.092 655.665 124.512V119.232H653.845V124.632C653.825 127.272 655.105 128.772 657.445 128.772C658.465 128.772 659.765 128.292 660.345 127.172V128.572H662.165V119.232H660.345V124.272ZM667.016 123.532C667.016 121.552 668.336 120.812 669.656 120.812C670.936 120.812 671.716 121.712 671.716 123.292V128.572H673.536V123.172C673.536 120.532 672.276 119.032 669.936 119.032C668.916 119.032 667.556 119.512 667.016 120.632V119.232H665.196V128.572H667.016V123.532ZM678.985 119.232V115.712H677.165V119.232H675.485V120.772H677.165V128.572H678.985V120.772H680.965V119.232H678.985ZM686.428 124.752C687.128 124.912 687.688 125.232 687.668 125.932C687.648 126.632 687.108 127.092 686.248 127.152C685.668 127.192 685.188 127.092 684.768 126.832C684.308 126.612 684.068 126.172 684.008 125.772H682.348C682.408 127.692 684.148 128.772 685.828 128.772C687.768 128.772 689.448 127.732 689.448 125.972C689.448 124.912 688.948 123.732 687.028 123.252L685.648 122.912C685.168 122.772 684.728 122.572 684.548 122.192C684.448 121.992 684.448 121.752 684.528 121.452C684.668 120.952 685.228 120.612 685.928 120.612C686.648 120.612 687.288 120.972 687.388 121.672H689.128C688.968 119.772 687.468 119.032 685.888 119.032C684.208 119.032 682.808 120.052 682.648 121.412C682.488 123.152 683.448 123.992 685.148 124.452L686.428 124.752Z" fill="white" fill-opacity="0.9"/>
<path d="M57.88 166.22V180H66.24V178.26H59.74V174.1H65.24V172.36H59.74V167.96H66.04V166.22H57.88ZM70.4728 174.96C70.4728 172.98 71.7928 172.24 73.1128 172.24C74.3928 172.24 75.1728 173.14 75.1728 174.72V180H76.9928V174.6C76.9928 171.96 75.7328 170.46 73.3928 170.46C72.3728 170.46 71.0128 170.94 70.4728 172.06V170.66H68.6528V180H70.4728V174.96ZM82.4423 170.66V167.14H80.6223V170.66H78.9423V172.2H80.6223V180H82.4423V172.2H84.4223V170.66H82.4423ZM87.5481 174.6C87.7681 173.02 88.9681 172.1 90.5081 172.1C92.0281 172.1 93.1281 173.02 93.3481 174.6H87.5481ZM95.1481 175.3C95.1481 172.34 93.1681 170.46 90.5081 170.46C87.8481 170.46 85.7281 172.34 85.7281 175.3C85.7281 178.26 87.8481 180.2 90.5081 180.2C92.3281 180.2 94.0081 179.38 94.8081 177.72C94.3081 177.5 93.7281 177.34 93.2481 177.12C92.7081 178.06 91.6881 178.56 90.5681 178.56C88.9681 178.56 87.7681 177.6 87.5481 176.02H95.1281C95.1481 175.8 95.1481 175.52 95.1481 175.3ZM99.2814 176.6C99.2814 174.12 100.041 172.2 101.841 172.2C102.221 172.2 102.721 172.28 103.221 172.52L103.501 170.82C103.241 170.64 102.541 170.46 101.881 170.46C100.661 170.46 99.7614 171.1 99.2814 172.76V170.66H97.4614V180H99.2814V176.6ZM107.172 170.66H105.352V184.54H107.172V178.6C107.812 179.66 109.112 180.2 110.432 180.2C112.992 180.2 115.112 178.32 115.112 175.36C115.112 172.4 112.992 170.46 110.432 170.46C109.112 170.46 107.812 171.06 107.172 172.12V170.66ZM107.192 175.38C107.192 173.4 108.612 172.24 110.252 172.24C111.932 172.24 113.272 173.52 113.272 175.38C113.272 177.24 111.932 178.42 110.252 178.42C108.752 178.42 107.192 177.38 107.192 175.38ZM119.36 176.6C119.36 174.12 120.12 172.2 121.92 172.2C122.3 172.2 122.8 172.28 123.3 172.52L123.58 170.82C123.32 170.64 122.62 170.46 121.96 170.46C120.74 170.46 119.84 171.1 119.36 172.76V170.66H117.54V180H119.36V176.6ZM127.23 170.66H125.43V180H127.23V170.66ZM125.07 167.22C125.07 167.92 125.63 168.4 126.33 168.4C127.03 168.4 127.59 167.92 127.59 167.22C127.59 166.52 127.03 166.04 126.33 166.04C125.63 166.04 125.07 166.52 125.07 167.22ZM133.674 176.18C134.374 176.34 134.934 176.66 134.914 177.36C134.894 178.06 134.354 178.52 133.494 178.58C132.914 178.62 132.434 178.52 132.014 178.26C131.554 178.04 131.314 177.6 131.254 177.2H129.594C129.654 179.12 131.394 180.2 133.074 180.2C135.014 180.2 136.694 179.16 136.694 177.4C136.694 176.34 136.194 175.16 134.274 174.68L132.894 174.34C132.414 174.2 131.974 174 131.794 173.62C131.694 173.42 131.694 173.18 131.774 172.88C131.914 172.38 132.474 172.04 133.174 172.04C133.894 172.04 134.534 172.4 134.634 173.1H136.374C136.214 171.2 134.714 170.46 133.134 170.46C131.454 170.46 130.054 171.48 129.894 172.84C129.734 174.58 130.694 175.42 132.394 175.88L133.674 176.18ZM140.263 174.6C140.483 173.02 141.683 172.1 143.223 172.1C144.743 172.1 145.843 173.02 146.063 174.6H140.263ZM147.863 175.3C147.863 172.34 145.883 170.46 143.223 170.46C140.563 170.46 138.443 172.34 138.443 175.3C138.443 178.26 140.563 180.2 143.223 180.2C145.043 180.2 146.723 179.38 147.523 177.72C147.023 177.5 146.443 177.34 145.963 177.12C145.423 178.06 144.403 178.56 143.283 178.56C141.683 178.56 140.483 177.6 140.263 176.02H147.843C147.863 175.8 147.863 175.52 147.863 175.3ZM157.172 170.66H155.372V180H157.172V170.66ZM155.012 167.22C155.012 167.92 155.572 168.4 156.272 168.4C156.972 168.4 157.532 167.92 157.532 167.22C157.532 166.52 156.972 166.04 156.272 166.04C155.572 166.04 155.012 166.52 155.012 167.22ZM162.035 174.96C162.035 172.98 163.355 172.24 164.675 172.24C165.955 172.24 166.735 173.14 166.735 174.72V180H168.555V174.6C168.555 171.96 167.295 170.46 164.955 170.46C163.935 170.46 162.575 170.94 162.035 172.06V170.66H160.215V180H162.035V174.96ZM174.005 170.66V167.14H172.185V170.66H170.505V172.2H172.185V180H174.005V172.2H175.985V170.66H174.005ZM179.111 174.6C179.331 173.02 180.531 172.1 182.071 172.1C183.591 172.1 184.691 173.02 184.911 174.6H179.111ZM186.711 175.3C186.711 172.34 184.731 170.46 182.071 170.46C179.411 170.46 177.291 172.34 177.291 175.3C177.291 178.26 179.411 180.2 182.071 180.2C183.891 180.2 185.571 179.38 186.371 177.72C185.871 177.5 185.291 177.34 184.811 177.12C184.271 178.06 183.251 178.56 182.131 178.56C180.531 178.56 179.331 177.6 179.111 176.02H186.691C186.711 175.8 186.711 175.52 186.711 175.3ZM190.424 181.34C190.184 181.44 189.124 182.02 188.904 182.14C189.804 183.8 191.384 184.66 193.124 184.66C196.224 184.66 198.224 182.98 198.224 178.58V170.66H196.424V172.12C195.784 171.06 194.444 170.46 193.144 170.46C190.584 170.46 188.404 172.4 188.404 175.36C188.404 178.32 190.584 180.2 193.144 180.2C194.464 180.2 195.844 179.6 196.424 178.48C196.424 178.56 196.444 178.62 196.444 178.7C196.444 181.8 195.144 182.94 193.124 182.94C192.084 182.94 190.984 182.38 190.424 181.34ZM196.404 175.34C196.404 177.34 194.824 178.42 193.304 178.42C191.624 178.42 190.264 177.26 190.264 175.34C190.264 173.52 191.624 172.24 193.304 172.24C194.964 172.24 196.404 173.34 196.404 175.34ZM203.07 176.6C203.07 174.12 203.83 172.2 205.63 172.2C206.01 172.2 206.51 172.28 207.01 172.52L207.29 170.82C207.03 170.64 206.33 170.46 205.67 170.46C204.45 170.46 203.55 171.1 203.07 172.76V170.66H201.25V180H203.07V176.6ZM216.307 180H218.107V170.66H216.307V172.06C215.667 171 214.327 170.46 213.027 170.46C210.467 170.46 208.287 172.34 208.287 175.32C208.287 178.28 210.467 180.2 213.027 180.2C214.327 180.2 215.687 179.6 216.307 178.56V180ZM216.287 175.3C216.287 177.28 214.847 178.42 213.187 178.42C211.507 178.42 210.147 177.14 210.147 175.3C210.147 173.46 211.507 172.24 213.187 172.24C214.707 172.24 216.287 173.3 216.287 175.3ZM223.673 170.66V167.14H221.853V170.66H220.173V172.2H221.853V180H223.673V172.2H225.653V170.66H223.673ZM229.515 170.66H227.715V180H229.515V170.66ZM227.355 167.22C227.355 167.92 227.915 168.4 228.615 168.4C229.315 168.4 229.875 167.92 229.875 167.22C229.875 166.52 229.315 166.04 228.615 166.04C227.915 166.04 227.355 166.52 227.355 167.22ZM236.819 180.2C239.479 180.2 241.719 178.26 241.719 175.3C241.719 172.34 239.479 170.46 236.819 170.46C234.159 170.46 231.939 172.34 231.939 175.3C231.939 178.26 234.159 180.2 236.819 180.2ZM236.819 178.44C235.119 178.44 233.739 177.22 233.739 175.3C233.739 173.42 235.119 172.24 236.819 172.24C238.479 172.24 239.899 173.42 239.899 175.3C239.899 177.22 238.479 178.44 236.819 178.44ZM245.961 174.96C245.961 172.98 247.281 172.24 248.601 172.24C249.881 172.24 250.661 173.14 250.661 174.72V180H252.481V174.6C252.481 171.96 251.221 170.46 248.881 170.46C247.861 170.46 246.501 170.94 245.961 172.06V170.66H244.141V180H245.961V174.96ZM271.006 180L274.466 170.66H272.526L270.186 177.2L267.846 170.66H266.086L263.746 177.2L261.406 170.66H259.466L263.026 180H264.506L266.966 173.14L269.506 180H271.006ZM278.207 170.66H276.407V180H278.207V170.66ZM276.047 167.22C276.047 167.92 276.607 168.4 277.307 168.4C278.007 168.4 278.567 167.92 278.567 167.22C278.567 166.52 278.007 166.04 277.307 166.04C276.607 166.04 276.047 166.52 276.047 167.22ZM283.77 170.66V167.14H281.95V170.66H280.27V172.2H281.95V180H283.77V172.2H285.75V170.66H283.77ZM289.633 174.96C289.633 172.96 291.193 172.24 292.473 172.24C293.753 172.24 294.673 173.18 294.673 174.72V180H296.493V174.6C296.513 171.96 295.053 170.46 292.713 170.46C291.713 170.46 290.173 170.94 289.633 172.06V165.58H287.813V180H289.633V174.96ZM308.87 180.2C311.53 180.2 313.77 178.26 313.77 175.3C313.77 172.34 311.53 170.46 308.87 170.46C306.21 170.46 303.99 172.34 303.99 175.3C303.99 178.26 306.21 180.2 308.87 180.2ZM308.87 178.44C307.17 178.44 305.79 177.22 305.79 175.3C305.79 173.42 307.17 172.24 308.87 172.24C310.53 172.24 311.95 173.42 311.95 175.3C311.95 177.22 310.53 178.44 308.87 178.44ZM318.712 170.66V167.14H316.892V170.66H315.212V172.2H316.892V180H318.712V172.2H320.692V170.66H318.712ZM324.574 174.96C324.574 172.96 326.134 172.24 327.414 172.24C328.694 172.24 329.614 173.18 329.614 174.72V180H331.434V174.6C331.454 171.96 329.994 170.46 327.654 170.46C326.654 170.46 325.114 170.94 324.574 172.06V165.58H322.754V180H324.574V174.96ZM335.556 174.6C335.776 173.02 336.976 172.1 338.516 172.1C340.036 172.1 341.136 173.02 341.356 174.6H335.556ZM343.156 175.3C343.156 172.34 341.176 170.46 338.516 170.46C335.856 170.46 333.736 172.34 333.736 175.3C333.736 178.26 335.856 180.2 338.516 180.2C340.336 180.2 342.016 179.38 342.816 177.72C342.316 177.5 341.736 177.34 341.256 177.12C340.716 178.06 339.696 178.56 338.576 178.56C336.976 178.56 335.776 177.6 335.556 176.02H343.136C343.156 175.8 343.156 175.52 343.156 175.3ZM347.289 176.6C347.289 174.12 348.049 172.2 349.849 172.2C350.229 172.2 350.729 172.28 351.229 172.52L351.509 170.82C351.249 170.64 350.549 170.46 349.889 170.46C348.669 170.46 347.769 171.1 347.289 172.76V170.66H345.469V180H347.289V176.6ZM360.587 170.66V167.14H358.767V170.66H357.087V172.2H358.767V180H360.587V172.2H362.567V170.66H360.587ZM368.753 180.2C371.413 180.2 373.653 178.26 373.653 175.3C373.653 172.34 371.413 170.46 368.753 170.46C366.093 170.46 363.873 172.34 363.873 175.3C363.873 178.26 366.093 180.2 368.753 180.2ZM368.753 178.44C367.053 178.44 365.673 177.22 365.673 175.3C365.673 173.42 367.053 172.24 368.753 172.24C370.413 172.24 371.833 173.42 371.833 175.3C371.833 177.22 370.413 178.44 368.753 178.44ZM380.335 180.2C382.995 180.2 385.235 178.26 385.235 175.3C385.235 172.34 382.995 170.46 380.335 170.46C377.675 170.46 375.455 172.34 375.455 175.3C375.455 178.26 377.675 180.2 380.335 180.2ZM380.335 178.44C378.635 178.44 377.255 177.22 377.255 175.3C377.255 173.42 378.635 172.24 380.335 172.24C381.995 172.24 383.415 173.42 383.415 175.3C383.415 177.22 381.995 178.44 380.335 178.44ZM387.657 165.58V180H389.477V165.58H387.657ZM395.92 176.18C396.62 176.34 397.18 176.66 397.16 177.36C397.14 178.06 396.6 178.52 395.74 178.58C395.16 178.62 394.68 178.52 394.26 178.26C393.8 178.04 393.56 177.6 393.5 177.2H391.84C391.9 179.12 393.64 180.2 395.32 180.2C397.26 180.2 398.94 179.16 398.94 177.4C398.94 176.34 398.44 175.16 396.52 174.68L395.14 174.34C394.66 174.2 394.22 174 394.04 173.62C393.94 173.42 393.94 173.18 394.02 172.88C394.16 172.38 394.72 172.04 395.42 172.04C396.14 172.04 396.78 172.4 396.88 173.1H398.62C398.46 171.2 396.96 170.46 395.38 170.46C393.7 170.46 392.3 171.48 392.14 172.84C391.98 174.58 392.94 175.42 394.64 175.88L395.92 176.18Z" fill="white" fill-opacity="0.9"/>
<path d="M28.0374 12.8751C28.444 14.1732 28.6667 15.554 28.6667 16.9871C28.6667 24.47 22.6854 30.5579 15.3334 30.5579C7.98135 30.5579 2.00002 24.47 2.00002 16.9871C2.00002 9.50415 7.98135 3.41629 15.3334 3.41629C18.2787 3.41629 20.9954 4.4056 23.204 6.05784L24.2227 5.12485C21.7547 3.2039 18.6734 2.0592 15.3334 2.0592C7.24602 2.0592 0.666687 8.75572 0.666687 16.9871C0.666687 25.2185 7.24602 31.915 15.3334 31.915C23.4207 31.915 30 25.2185 30 16.9871C30 15.1537 29.672 13.3969 29.0747 11.7732L28.0374 12.8751Z" fill="white"/>
<path d="M29.3333 4.09485L16 16.3086L10 11.5588L8 13.5944L16 21.7369L31.3333 5.45193L29.3333 4.09485Z" fill="white"/>
<path d="M28.0374 64.7835C28.444 66.0815 28.6667 67.4623 28.6667 68.8954C28.6667 76.3784 22.6854 82.4662 15.3334 82.4662C7.98135 82.4662 2.00002 76.3784 2.00002 68.8954C2.00002 61.4125 7.98135 55.3246 15.3334 55.3246C18.2787 55.3246 20.9954 56.3139 23.204 57.9662L24.2227 57.0332C21.7547 55.1122 18.6734 53.9675 15.3334 53.9675C7.24602 53.9675 0.666687 60.664 0.666687 68.8954C0.666687 77.1268 7.24602 83.8233 15.3334 83.8233C23.4207 83.8233 30 77.1268 30 68.8954C30 67.062 29.672 65.3053 29.0747 63.6815L28.0374 64.7835Z" fill="white"/>
<path d="M29.3333 56.0032L16 68.2169L10 63.4671L8 65.5027L16 73.6452L31.3333 57.3603L29.3333 56.0032Z" fill="white"/>
<path d="M28.0374 116.692C28.444 117.99 28.6667 119.371 28.6667 120.804C28.6667 128.287 22.6854 134.375 15.3334 134.375C7.98135 134.375 2.00002 128.287 2.00002 120.804C2.00002 113.321 7.98135 107.233 15.3334 107.233C18.2787 107.233 20.9954 108.222 23.204 109.874L24.2227 108.942C21.7547 107.021 18.6734 105.876 15.3334 105.876C7.24602 105.876 0.666687 112.572 0.666687 120.804C0.666687 129.035 7.24602 135.732 15.3334 135.732C23.4207 135.732 30 129.035 30 120.804C30 118.97 29.672 117.214 29.0747 115.59L28.0374 116.692Z" fill="white"/>
<path d="M29.3333 107.911L16 120.125L10 115.375L8 117.411L16 125.554L31.3333 109.269L29.3333 107.911Z" fill="white"/>
<path d="M28.0374 168.6C28.444 169.898 28.6667 171.279 28.6667 172.712C28.6667 180.195 22.6854 186.283 15.3334 186.283C7.98135 186.283 2.00002 180.195 2.00002 172.712C2.00002 165.229 7.98135 159.141 15.3334 159.141C18.2787 159.141 20.9954 160.131 23.204 161.783L24.2227 160.85C21.7547 158.929 18.6734 157.784 15.3334 157.784C7.24602 157.784 0.666687 164.481 0.666687 172.712C0.666687 180.943 7.24602 187.64 15.3334 187.64C23.4207 187.64 30 180.943 30 172.712C30 170.879 29.672 169.122 29.0747 167.498L28.0374 168.6Z" fill="white"/>
<path d="M29.3333 159.82L16 172.034L10 167.284L8 169.319L16 177.462L31.3333 161.177L29.3333 159.82Z" fill="white"/>
</svg>
