<svg width="725" height="119" viewBox="0 0 725 119" fill="none" xmlns="http://www.w3.org/2000/svg">
<g filter="url(#filter0_d_4470_2820)">
<path d="M50.95 31.85C49.1 34.65 45.95 36.6 42.35 36.6C36.6 36.6 32.4 31.8 32.4 25.85C32.4 19.85 36.6 15.05 42.35 15.05C45.95 15.05 48.9 16.8 50.75 19.55L56.7 15.45C53.7 11.05 48.55 8.15 42.35 8.15C32.55 8.15 25.05 16.1 25.05 25.85C25.05 35.55 32.55 43.5 42.35 43.5C48.6 43.5 53.85 40.55 56.85 35.95L50.95 31.85ZM68.1109 30.65C68.1109 27.1 70.5609 25.9 72.7609 25.9C74.9109 25.9 77.0609 27.5 77.0609 30.55V43H84.0109V30.3C84.0109 23.25 80.8609 19.15 74.6609 19.15C72.4609 19.15 69.0109 20.4 68.1109 23.3V6.95H61.1609V43H68.1109V30.65ZM100.816 36.6C97.966 36.6 95.566 34.5 95.566 31.25C95.566 28.05 97.966 25.95 100.816 25.95C103.766 25.95 106.116 28.05 106.116 31.25C106.116 34.5 103.766 36.6 100.816 36.6ZM100.816 43.4C107.416 43.4 112.966 38.6 112.966 31.25C112.966 23.85 107.416 19.15 100.816 19.15C94.166 19.15 88.716 23.85 88.716 31.25C88.716 38.6 94.166 43.4 100.816 43.4ZM128.648 36.6C125.798 36.6 123.398 34.5 123.398 31.25C123.398 28.05 125.798 25.95 128.648 25.95C131.598 25.95 133.948 28.05 133.948 31.25C133.948 34.5 131.598 36.6 128.648 36.6ZM128.648 43.4C135.248 43.4 140.798 38.6 140.798 31.25C140.798 23.85 135.248 19.15 128.648 19.15C121.998 19.15 116.548 23.85 116.548 31.25C116.548 38.6 121.998 43.4 128.648 43.4ZM154.88 34.2C156.63 34.65 157.18 35.2 157.18 36.2C157.18 37.4 155.88 38.1 154.33 38.15C152.38 38.15 150.93 36.8 150.88 35.45H144.38C144.38 40.65 149.43 43.5 154.13 43.5C159.03 43.5 164.23 41.15 164.23 36.2C164.23 34.65 163.53 31 157.88 29.4L153.93 28.35C152.53 28 151.93 27.35 151.88 26.6C151.83 25.55 152.78 24.85 154.33 24.85C155.48 24.85 156.93 25.15 156.98 26.9H163.53C163.53 21.15 158.53 19.15 153.93 19.15C149.03 19.15 144.83 22.35 144.83 25.8C144.83 27.95 144.78 31.55 151.83 33.4L154.88 34.2ZM185.52 35.3C184.37 36.85 182.37 37.5 180.42 37.5C177.92 37.5 175.07 36.3 174.67 33.6H191.77C191.82 33 191.87 32.05 191.87 31.45C191.87 24.1 186.57 19.15 179.92 19.15C173.27 19.15 167.72 23.85 167.72 31.25C167.72 38.6 173.27 43.5 179.92 43.5C183.92 43.5 188.17 42.25 190.57 38.75L185.52 35.3ZM174.77 29.25C175.32 26.25 178.07 25.25 179.97 25.25C181.97 25.25 184.47 26.4 184.87 29.25H174.77ZM226.117 43H233.017V19.65H226.117V22.25C224.217 19.7 220.867 19.15 219.317 19.15C213.367 19.15 207.417 23.85 207.417 31.3C207.417 38.75 213.367 43.45 219.317 43.45C221.067 43.45 224.667 42.55 226.117 40.35V43ZM214.617 31.3C214.617 27.95 217.517 25.75 220.467 25.75C223.317 25.75 226.117 27.85 226.117 31.3C226.117 34.8 223.317 36.85 220.467 36.85C217.517 36.85 214.617 34.65 214.617 31.3ZM258.689 31.25C258.689 27.8 261.289 25.7 264.089 25.7C267.089 25.7 269.489 27.85 269.489 31.25C269.489 34.7 267.039 36.9 264.089 36.9C261.139 36.9 258.689 34.65 258.689 31.25ZM258.539 43V40.1C259.689 42.25 262.439 43.5 265.389 43.5C271.389 43.5 276.689 38.8 276.689 31.4C276.689 23.9 271.389 19.15 265.389 19.15C262.439 19.15 259.689 20.35 258.539 22.5V6.95H251.639V43H258.539ZM298.118 35.3C296.968 36.85 294.968 37.5 293.018 37.5C290.518 37.5 287.668 36.3 287.268 33.6H304.368C304.418 33 304.468 32.05 304.468 31.45C304.468 24.1 299.168 19.15 292.518 19.15C285.868 19.15 280.318 23.85 280.318 31.25C280.318 38.6 285.868 43.5 292.518 43.5C296.518 43.5 300.768 42.25 303.168 38.75L298.118 35.3ZM287.368 29.25C287.918 26.25 290.668 25.25 292.568 25.25C294.568 25.25 297.068 26.4 297.468 29.25H287.368ZM318.113 19.65V10.7H311.213V19.65H306.963V25.15H311.213V43H318.113V25.15H323.013V19.65H318.113ZM336.374 19.65V10.7H329.474V19.65H325.224V25.15H329.474V43H336.374V25.15H341.274V19.65H336.374ZM361.594 35.3C360.444 36.85 358.444 37.5 356.494 37.5C353.994 37.5 351.144 36.3 350.744 33.6H367.844C367.894 33 367.944 32.05 367.944 31.45C367.944 24.1 362.644 19.15 355.994 19.15C349.344 19.15 343.794 23.85 343.794 31.25C343.794 38.6 349.344 43.5 355.994 43.5C359.994 43.5 364.244 42.25 366.644 38.75L361.594 35.3ZM350.844 29.25C351.394 26.25 354.144 25.25 356.044 25.25C358.044 25.25 360.544 26.4 360.944 29.25H350.844ZM379.634 34.85C379.634 28.65 381.434 25.55 385.434 25.55C386.584 25.55 387.734 25.65 388.984 26.25L390.234 20C389.084 19.45 387.884 19.15 386.234 19.15C383.834 19.15 380.834 20.95 379.634 25.3V19.65H372.684V43H379.634V34.85ZM439.312 19.65H431.912L427.762 33.55L423.662 19.65H417.712L413.612 33.55L409.462 19.65H402.062L410.512 43H416.312L420.712 28.15L425.312 43H431.112L439.312 19.65ZM459.955 43H466.855V19.65H459.955V22.25C458.055 19.7 454.705 19.15 453.155 19.15C447.205 19.15 441.255 23.85 441.255 31.3C441.255 38.75 447.205 43.45 453.155 43.45C454.905 43.45 458.505 42.55 459.955 40.35V43ZM448.455 31.3C448.455 27.95 451.355 25.75 454.305 25.75C457.155 25.75 459.955 27.85 459.955 31.3C459.955 34.8 457.155 36.85 454.305 36.85C451.355 36.85 448.455 34.65 448.455 31.3ZM495.37 19.65H487.97L482.77 32.9L477.62 19.65H470.22L479.22 40.6L473.62 54.45H480.97L495.37 19.65ZM518.845 19.65V10.7H511.945V19.65H507.695V25.15H511.945V43H518.845V25.15H523.745V19.65H518.845ZM538.365 36.6C535.515 36.6 533.115 34.5 533.115 31.25C533.115 28.05 535.515 25.95 538.365 25.95C541.315 25.95 543.665 28.05 543.665 31.25C543.665 34.5 541.315 36.6 538.365 36.6ZM538.365 43.4C544.965 43.4 550.515 38.6 550.515 31.25C550.515 23.85 544.965 19.15 538.365 19.15C531.715 19.15 526.265 23.85 526.265 31.25C526.265 38.6 531.715 43.4 538.365 43.4ZM602.154 19.65H594.754L590.604 33.55L586.504 19.65H580.554L576.454 33.55L572.304 19.65H564.904L573.354 43H579.154L583.554 28.15L588.154 43H593.954L602.154 19.65ZM616.197 36.6C613.347 36.6 610.947 34.5 610.947 31.25C610.947 28.05 613.347 25.95 616.197 25.95C619.147 25.95 621.497 28.05 621.497 31.25C621.497 34.5 619.147 36.6 616.197 36.6ZM616.197 43.4C622.797 43.4 628.347 38.6 628.347 31.25C628.347 23.85 622.797 19.15 616.197 19.15C609.547 19.15 604.097 23.85 604.097 31.25C604.097 38.6 609.547 43.4 616.197 43.4ZM640.279 34.85C640.279 28.65 642.079 25.55 646.079 25.55C647.229 25.55 648.379 25.65 649.629 26.25L650.879 20C649.729 19.45 648.529 19.15 646.879 19.15C644.479 19.15 641.479 20.95 640.279 25.3V19.65H633.329V43H640.279V34.85ZM661.371 33.75L669.171 43H677.721L666.071 29.95L675.771 19.65H666.921L661.371 26.05V6.95H654.471V43H661.371V33.75Z" fill="white"/>
<path d="M16.184 88.464H13.64V100.2L6.608 88.464H4.16V105H6.704V93.168L13.808 105H16.184V88.464ZM24.9181 102.84C23.0701 102.84 21.5341 101.472 21.5341 99.36C21.5341 97.32 23.0701 95.976 24.9181 95.976C26.7901 95.976 28.3261 97.32 28.3261 99.36C28.3261 101.472 26.7901 102.84 24.9181 102.84ZM24.9181 105.24C28.1101 105.24 30.7981 102.912 30.7981 99.36C30.7981 95.808 28.1101 93.552 24.9181 93.552C21.7501 93.552 19.0861 95.808 19.0861 99.36C19.0861 102.912 21.7501 105.24 24.9181 105.24ZM38.9143 99.36C38.9143 102.912 41.6743 105.24 44.8903 105.24C46.7143 105.24 48.2983 104.52 49.3543 103.272L47.4103 101.76C46.8103 102.456 45.8743 102.864 44.8903 102.864C43.0183 102.864 41.3623 101.448 41.3623 99.36C41.3623 97.272 43.0183 95.952 44.8903 95.952C45.8743 95.952 46.8103 96.336 47.4103 97.032L49.3303 95.496C48.2743 94.248 46.6903 93.552 44.8903 93.552C41.6743 93.552 38.9143 95.808 38.9143 99.36ZM54.4344 100.968C54.4344 97.992 55.3224 95.88 57.4344 95.88C57.9144 95.88 58.4424 95.952 59.0904 96.264L59.4984 93.984C59.1384 93.72 58.2984 93.552 57.5064 93.552C56.0904 93.552 55.0104 94.344 54.4344 96.36V93.792H51.9624V105H54.4344V100.968ZM71.9699 99.36C71.9699 95.808 69.5219 93.552 66.3539 93.552C63.1859 93.552 60.5939 95.808 60.5939 99.36C60.5939 102.912 63.1859 105.24 66.3539 105.24C68.4419 105.24 70.5779 104.352 71.5379 102.36L69.5219 101.472C68.9459 102.504 67.7219 103.08 66.4739 103.08C64.6499 103.08 63.3059 102 63.0419 100.272H71.9459C71.9699 100.008 71.9699 99.624 71.9699 99.36ZM63.0419 98.472C63.3059 96.744 64.6259 95.712 66.3539 95.712C68.0579 95.712 69.2819 96.72 69.5459 98.472H63.0419ZM83.2676 105H85.7156V87.696H83.2676V95.4C82.5716 94.176 81.0836 93.552 79.4756 93.552C76.4516 93.552 73.8836 95.808 73.8836 99.408C73.8836 102.936 76.4516 105.24 79.4756 105.24C81.0116 105.24 82.5716 104.592 83.2676 103.368V105ZM83.2196 99.36C83.2196 101.544 81.6116 102.84 79.7876 102.84C77.9396 102.84 76.4276 101.424 76.4276 99.36C76.4276 97.296 77.9396 95.952 79.7876 95.952C81.4436 95.952 83.2196 97.176 83.2196 99.36ZM91.6291 93.792H89.1811V105H91.6291V93.792ZM88.7491 89.256C88.7491 90.144 89.5171 90.816 90.4051 90.816C91.3411 90.816 92.0371 90.144 92.0371 89.256C92.0371 88.368 91.3411 87.696 90.4051 87.696C89.5171 87.696 88.7491 88.368 88.7491 89.256ZM98.4474 89.544H95.9754V93.792H93.9594V95.832H95.9754V105H98.4474V95.832H100.823V93.792H98.4474V89.544ZM108.055 99.36C108.055 102.912 110.815 105.24 114.031 105.24C115.855 105.24 117.439 104.52 118.495 103.272L116.551 101.76C115.951 102.456 115.015 102.864 114.031 102.864C112.159 102.864 110.503 101.448 110.503 99.36C110.503 97.272 112.159 95.952 114.031 95.952C115.015 95.952 115.951 96.336 116.551 97.032L118.471 95.496C117.415 94.248 115.831 93.552 114.031 93.552C110.815 93.552 108.055 95.808 108.055 99.36ZM129.605 105H132.053V93.792H129.605V95.376C128.837 94.104 127.181 93.552 125.837 93.552C122.837 93.552 120.149 95.808 120.149 99.384C120.149 102.96 122.837 105.24 125.837 105.24C127.277 105.24 128.837 104.616 129.605 103.392V105ZM122.693 99.36C122.693 97.296 124.277 95.952 126.125 95.952C127.805 95.952 129.581 97.176 129.581 99.36C129.581 101.568 127.949 102.84 126.125 102.84C124.277 102.84 122.693 101.424 122.693 99.36ZM137.989 100.968C137.989 97.992 138.877 95.88 140.989 95.88C141.469 95.88 141.997 95.952 142.645 96.264L143.053 93.984C142.693 93.72 141.853 93.552 141.061 93.552C139.645 93.552 138.565 94.344 137.989 96.36V93.792H135.517V105H137.989V100.968ZM153.557 105H156.005V87.696H153.557V95.4C152.861 94.176 151.373 93.552 149.765 93.552C146.741 93.552 144.173 95.808 144.173 99.408C144.173 102.936 146.741 105.24 149.765 105.24C151.301 105.24 152.861 104.592 153.557 103.368V105ZM153.509 99.36C153.509 101.544 151.901 102.84 150.077 102.84C148.229 102.84 146.717 101.424 146.717 99.36C146.717 97.296 148.229 95.952 150.077 95.952C151.733 95.952 153.509 97.176 153.509 99.36ZM174.252 105H176.7V87.696H174.252V95.4C173.556 94.176 172.068 93.552 170.46 93.552C167.436 93.552 164.868 95.808 164.868 99.408C164.868 102.936 167.436 105.24 170.46 105.24C171.996 105.24 173.556 104.592 174.252 103.368V105ZM174.204 99.36C174.204 101.544 172.596 102.84 170.772 102.84C168.924 102.84 167.412 101.424 167.412 99.36C167.412 97.296 168.924 95.952 170.772 95.952C172.428 95.952 174.204 97.176 174.204 99.36ZM190.822 99.36C190.822 95.808 188.374 93.552 185.206 93.552C182.038 93.552 179.446 95.808 179.446 99.36C179.446 102.912 182.038 105.24 185.206 105.24C187.294 105.24 189.43 104.352 190.39 102.36L188.374 101.472C187.798 102.504 186.574 103.08 185.326 103.08C183.502 103.08 182.158 102 181.894 100.272H190.798C190.822 100.008 190.822 99.624 190.822 99.36ZM181.894 98.472C182.158 96.744 183.478 95.712 185.206 95.712C186.91 95.712 188.134 96.72 188.398 98.472H181.894ZM196.791 89.544H194.319V93.792H192.303V95.832H194.319V105H196.791V95.832H199.167V93.792H196.791V89.544ZM210.066 105H212.514V93.792H210.066V95.376C209.298 94.104 207.642 93.552 206.298 93.552C203.298 93.552 200.61 95.808 200.61 99.384C200.61 102.96 203.298 105.24 206.298 105.24C207.738 105.24 209.298 104.616 210.066 103.392V105ZM203.154 99.36C203.154 97.296 204.738 95.952 206.586 95.952C208.266 95.952 210.042 97.176 210.042 99.36C210.042 101.568 208.41 102.84 206.586 102.84C204.738 102.84 203.154 101.424 203.154 99.36ZM218.426 93.792H215.978V105H218.426V93.792ZM215.546 89.256C215.546 90.144 216.314 90.816 217.202 90.816C218.138 90.816 218.834 90.144 218.834 89.256C218.834 88.368 218.138 87.696 217.202 87.696C216.314 87.696 215.546 88.368 215.546 89.256ZM221.884 105H224.356V87.696H221.884V105ZM231.942 100.512C232.782 100.704 233.502 101.088 233.502 101.832C233.502 102.672 232.638 103.176 231.51 103.176C230.19 103.176 229.422 102.528 229.302 101.568H227.022C227.094 103.944 229.206 105.24 231.318 105.24C233.886 105.24 235.782 104.016 235.782 101.856C235.782 100.752 235.254 99.168 232.854 98.592L231.126 98.16C230.526 97.992 229.926 97.752 229.758 97.296C229.638 96.936 229.662 96.6 229.854 96.288C230.118 95.904 230.79 95.664 231.438 95.664C232.206 95.664 232.974 96.024 233.07 96.864H235.422C235.302 94.464 233.31 93.552 231.342 93.552C229.302 93.552 227.454 94.848 227.334 96.504C227.166 98.328 228.03 99.504 230.43 100.152L231.942 100.512ZM244.788 85.872V107.88H246.348V85.872H244.788ZM268.559 88.464H266.015V100.2L258.983 88.464H256.535V105H259.079V93.168L266.183 105H268.559V88.464ZM277.293 102.84C275.445 102.84 273.909 101.472 273.909 99.36C273.909 97.32 275.445 95.976 277.293 95.976C279.165 95.976 280.701 97.32 280.701 99.36C280.701 101.472 279.165 102.84 277.293 102.84ZM277.293 105.24C280.485 105.24 283.173 102.912 283.173 99.36C283.173 95.808 280.485 93.552 277.293 93.552C274.125 93.552 271.461 95.808 271.461 99.36C271.461 102.912 274.125 105.24 277.293 105.24ZM300.745 105H303.193V93.792H300.745V95.376C299.977 94.104 298.321 93.552 296.977 93.552C293.977 93.552 291.289 95.808 291.289 99.384C291.289 102.96 293.977 105.24 296.977 105.24C298.417 105.24 299.977 104.616 300.745 103.392V105ZM293.833 99.36C293.833 97.296 295.417 95.952 297.265 95.952C298.945 95.952 300.721 97.176 300.721 99.36C300.721 101.568 299.089 102.84 297.265 102.84C295.417 102.84 293.833 101.424 293.833 99.36ZM315.346 105H317.794V87.696H315.346V95.4C314.65 94.176 313.162 93.552 311.554 93.552C308.53 93.552 305.962 95.808 305.962 99.408C305.962 102.936 308.53 105.24 311.554 105.24C313.09 105.24 314.65 104.592 315.346 103.368V105ZM315.298 99.36C315.298 101.544 313.69 102.84 311.866 102.84C310.018 102.84 308.506 101.424 308.506 99.36C308.506 97.296 310.018 95.952 311.866 95.952C313.522 95.952 315.298 97.176 315.298 99.36ZM329.947 105H332.395V87.696H329.947V95.4C329.251 94.176 327.763 93.552 326.155 93.552C323.131 93.552 320.563 95.808 320.563 99.408C320.563 102.936 323.131 105.24 326.155 105.24C327.691 105.24 329.251 104.592 329.947 103.368V105ZM329.899 99.36C329.899 101.544 328.291 102.84 326.467 102.84C324.619 102.84 323.107 101.424 323.107 99.36C323.107 97.296 324.619 95.952 326.467 95.952C328.123 95.952 329.899 97.176 329.899 99.36ZM338.309 93.792H335.861V105H338.309V93.792ZM335.429 89.256C335.429 90.144 336.197 90.816 337.085 90.816C338.021 90.816 338.717 90.144 338.717 89.256C338.717 88.368 338.021 87.696 337.085 87.696C336.197 87.696 335.429 88.368 335.429 89.256ZM345.127 89.544H342.655V93.792H340.639V95.832H342.655V105H345.127V95.832H347.503V93.792H345.127V89.544ZM352.278 93.792H349.83V105H352.278V93.792ZM349.398 89.256C349.398 90.144 350.166 90.816 351.054 90.816C351.99 90.816 352.686 90.144 352.686 89.256C352.686 88.368 351.99 87.696 351.054 87.696C350.166 87.696 349.398 88.368 349.398 89.256ZM360.848 102.84C359 102.84 357.464 101.472 357.464 99.36C357.464 97.32 359 95.976 360.848 95.976C362.72 95.976 364.256 97.32 364.256 99.36C364.256 101.472 362.72 102.84 360.848 102.84ZM360.848 105.24C364.04 105.24 366.728 102.912 366.728 99.36C366.728 95.808 364.04 93.552 360.848 93.552C357.68 93.552 355.016 95.808 355.016 99.36C355.016 102.912 357.68 105.24 360.848 105.24ZM371.942 98.976C371.942 96.768 373.358 95.976 374.822 95.976C376.262 95.976 377.174 96.96 377.174 98.76V105H379.646V98.472C379.646 95.28 378.086 93.552 375.374 93.552C374.15 93.552 372.59 94.2 371.942 95.472V93.792H369.47V105H371.942V98.976ZM391.73 105H394.178V93.792H391.73V95.376C390.962 94.104 389.306 93.552 387.962 93.552C384.962 93.552 382.274 95.808 382.274 99.384C382.274 102.96 384.962 105.24 387.962 105.24C389.402 105.24 390.962 104.616 391.73 103.392V105ZM384.818 99.36C384.818 97.296 386.402 95.952 388.25 95.952C389.93 95.952 391.706 97.176 391.706 99.36C391.706 101.568 390.074 102.84 388.25 102.84C386.402 102.84 384.818 101.424 384.818 99.36ZM397.642 105H400.114V87.696H397.642V105ZM412.114 93.792H409.666V105H412.114V93.792ZM409.234 89.256C409.234 90.144 410.002 90.816 410.89 90.816C411.826 90.816 412.522 90.144 412.522 89.256C412.522 88.368 411.826 87.696 410.89 87.696C410.002 87.696 409.234 88.368 409.234 89.256ZM418.044 98.976C418.044 96.768 419.46 95.976 420.924 95.976C422.364 95.976 423.276 96.96 423.276 98.76V105H425.748V98.472C425.748 95.28 424.188 93.552 421.476 93.552C420.252 93.552 418.692 94.2 418.044 95.472V93.792H415.572V105H418.044V98.976ZM433.223 100.512C434.063 100.704 434.783 101.088 434.783 101.832C434.783 102.672 433.919 103.176 432.791 103.176C431.471 103.176 430.703 102.528 430.583 101.568H428.303C428.375 103.944 430.487 105.24 432.599 105.24C435.167 105.24 437.063 104.016 437.063 101.856C437.063 100.752 436.535 99.168 434.135 98.592L432.407 98.16C431.807 97.992 431.207 97.752 431.039 97.296C430.919 96.936 430.943 96.6 431.135 96.288C431.399 95.904 432.071 95.664 432.719 95.664C433.487 95.664 434.255 96.024 434.351 96.864H436.703C436.583 94.464 434.591 93.552 432.623 93.552C430.583 93.552 428.735 94.848 428.615 96.504C428.447 98.328 429.311 99.504 431.711 100.152L433.223 100.512ZM443.119 89.544H440.647V93.792H438.631V95.832H440.647V105H443.119V95.832H445.495V93.792H443.119V89.544ZM456.394 105H458.842V93.792H456.394V95.376C455.626 94.104 453.97 93.552 452.626 93.552C449.626 93.552 446.938 95.808 446.938 99.384C446.938 102.96 449.626 105.24 452.626 105.24C454.066 105.24 455.626 104.616 456.394 103.392V105ZM449.482 99.36C449.482 97.296 451.066 95.952 452.914 95.952C454.594 95.952 456.37 97.176 456.37 99.36C456.37 101.568 454.738 102.84 452.914 102.84C451.066 102.84 449.482 101.424 449.482 99.36ZM462.306 105H464.778V87.696H462.306V105ZM468.236 105H470.708V87.696H468.236V105ZM482.902 105H485.35V93.792H482.902V95.376C482.134 94.104 480.478 93.552 479.134 93.552C476.134 93.552 473.446 95.808 473.446 99.384C473.446 102.96 476.134 105.24 479.134 105.24C480.574 105.24 482.134 104.616 482.902 103.392V105ZM475.99 99.36C475.99 97.296 477.574 95.952 479.422 95.952C481.102 95.952 482.878 97.176 482.878 99.36C482.878 101.568 481.246 102.84 479.422 102.84C477.574 102.84 475.99 101.424 475.99 99.36ZM492.174 89.544H489.702V93.792H487.686V95.832H489.702V105H492.174V95.832H494.55V93.792H492.174V89.544ZM499.324 93.792H496.876V105H499.324V93.792ZM496.444 89.256C496.444 90.144 497.212 90.816 498.1 90.816C499.036 90.816 499.732 90.144 499.732 89.256C499.732 88.368 499.036 87.696 498.1 87.696C497.212 87.696 496.444 88.368 496.444 89.256ZM507.895 102.84C506.047 102.84 504.511 101.472 504.511 99.36C504.511 97.32 506.047 95.976 507.895 95.976C509.767 95.976 511.303 97.32 511.303 99.36C511.303 101.472 509.767 102.84 507.895 102.84ZM507.895 105.24C511.087 105.24 513.775 102.912 513.775 99.36C513.775 95.808 511.087 93.552 507.895 93.552C504.727 93.552 502.063 95.808 502.063 99.36C502.063 102.912 504.727 105.24 507.895 105.24ZM518.989 98.976C518.989 96.768 520.405 95.976 521.869 95.976C523.309 95.976 524.221 96.96 524.221 98.76V105H526.693V98.472C526.693 95.28 525.133 93.552 522.421 93.552C521.197 93.552 519.637 94.2 518.989 95.472V93.792H516.517V105H518.989V98.976ZM536.35 85.872V107.88H537.91V85.872H536.35ZM560.122 88.464H557.578V100.2L550.546 88.464H548.098V105H550.642V93.168L557.746 105H560.122V88.464ZM568.856 102.84C567.008 102.84 565.472 101.472 565.472 99.36C565.472 97.32 567.008 95.976 568.856 95.976C570.728 95.976 572.264 97.32 572.264 99.36C572.264 101.472 570.728 102.84 568.856 102.84ZM568.856 105.24C572.048 105.24 574.736 102.912 574.736 99.36C574.736 95.808 572.048 93.552 568.856 93.552C565.688 93.552 563.024 95.808 563.024 99.36C563.024 102.912 565.688 105.24 568.856 105.24ZM586.932 89.544H584.46V93.792H582.444V95.832H584.46V105H586.932V95.832H589.308V93.792H586.932V89.544ZM594.082 93.792H591.634V105H594.082V93.792ZM591.202 89.256C591.202 90.144 591.97 90.816 592.858 90.816C593.794 90.816 594.49 90.144 594.49 89.256C594.49 88.368 593.794 87.696 592.858 87.696C591.97 87.696 591.202 88.368 591.202 89.256ZM610.309 95.976C611.749 95.976 612.685 97.008 612.685 98.76V105H615.157V98.544C615.157 95.352 613.621 93.552 610.837 93.552C609.829 93.552 608.101 93.84 607.069 95.784C606.421 94.344 605.341 93.552 603.541 93.552C602.629 93.552 600.781 93.936 600.013 95.472V93.792H597.541V105H600.013V98.976C600.013 96.768 601.405 95.976 602.845 95.976C604.189 95.976 605.101 96.984 605.125 98.712V105H607.597V98.976C607.597 97.152 608.677 95.976 610.309 95.976ZM629.15 99.36C629.15 95.808 626.702 93.552 623.534 93.552C620.366 93.552 617.774 95.808 617.774 99.36C617.774 102.912 620.366 105.24 623.534 105.24C625.622 105.24 627.758 104.352 628.718 102.36L626.702 101.472C626.126 102.504 624.902 103.08 623.654 103.08C621.83 103.08 620.486 102 620.222 100.272H629.126C629.15 100.008 629.15 99.624 629.15 99.36ZM620.222 98.472C620.486 96.744 621.806 95.712 623.534 95.712C625.238 95.712 626.462 96.72 626.726 98.472H620.222ZM654.461 93.792H651.821L649.205 101.352L646.613 93.792H644.309L641.717 101.352L639.125 93.792H636.485L640.709 105H642.725L645.461 97.056L648.317 105H650.357L654.461 93.792ZM665.152 105H667.6V93.792H665.152V95.376C664.384 94.104 662.728 93.552 661.384 93.552C658.384 93.552 655.696 95.808 655.696 99.384C655.696 102.96 658.384 105.24 661.384 105.24C662.824 105.24 664.384 104.616 665.152 103.392V105ZM658.24 99.36C658.24 97.296 659.824 95.952 661.672 95.952C663.352 95.952 665.128 97.176 665.128 99.36C665.128 101.568 663.496 102.84 661.672 102.84C659.824 102.84 658.24 101.424 658.24 99.36ZM675.192 100.512C676.032 100.704 676.752 101.088 676.752 101.832C676.752 102.672 675.888 103.176 674.76 103.176C673.44 103.176 672.672 102.528 672.552 101.568H670.272C670.344 103.944 672.456 105.24 674.568 105.24C677.136 105.24 679.032 104.016 679.032 101.856C679.032 100.752 678.504 99.168 676.104 98.592L674.376 98.16C673.776 97.992 673.176 97.752 673.008 97.296C672.888 96.936 672.912 96.6 673.104 96.288C673.368 95.904 674.04 95.664 674.688 95.664C675.456 95.664 676.224 96.024 676.32 96.864H678.672C678.552 94.464 676.56 93.552 674.592 93.552C672.552 93.552 670.704 94.848 670.584 96.504C670.416 98.328 671.28 99.504 673.68 100.152L675.192 100.512ZM685.088 89.544H682.616V93.792H680.6V95.832H682.616V105H685.088V95.832H687.464V93.792H685.088V89.544ZM692.239 93.792H689.791V105H692.239V93.792ZM689.359 89.256C689.359 90.144 690.127 90.816 691.015 90.816C691.951 90.816 692.647 90.144 692.647 89.256C692.647 88.368 691.951 87.696 691.015 87.696C690.127 87.696 689.359 88.368 689.359 89.256ZM698.169 98.976C698.169 96.768 699.585 95.976 701.049 95.976C702.489 95.976 703.401 96.96 703.401 98.76V105H705.873V98.472C705.873 95.28 704.313 93.552 701.601 93.552C700.377 93.552 698.817 94.2 698.169 95.472V93.792H695.697V105H698.169V98.976ZM717.932 99.408C717.932 101.616 716.156 102.864 714.476 102.864C712.604 102.864 711.068 101.52 711.068 99.408C711.068 97.368 712.604 95.952 714.476 95.952C716.324 95.952 717.932 97.176 717.932 99.408ZM711.092 106.416C710.636 106.608 709.508 107.256 709.052 107.448C710.108 109.464 712.052 110.592 714.236 110.592C718.004 110.592 720.404 108.504 720.404 103.344V93.792H717.98V95.448C717.284 94.224 715.724 93.552 714.188 93.552C711.164 93.552 708.524 95.88 708.524 99.432C708.524 102.984 711.164 105.24 714.188 105.24C715.7 105.24 717.356 104.568 717.98 103.296V103.872C717.98 107.016 716.516 108.288 714.236 108.288C713.012 108.288 711.692 107.592 711.092 106.416Z" fill="white"/>
</g>
<defs>
<filter id="filter0_d_4470_2820" x="0.159912" y="6.94995" width="724.244" height="111.642" filterUnits="userSpaceOnUse" color-interpolation-filters="sRGB">
<feFlood flood-opacity="0" result="BackgroundImageFix"/>
<feColorMatrix in="SourceAlpha" type="matrix" values="0 0 0 0 0 0 0 0 0 0 0 0 0 0 0 0 0 0 127 0" result="hardAlpha"/>
<feOffset dy="4"/>
<feGaussianBlur stdDeviation="2"/>
<feColorMatrix type="matrix" values="0 0 0 0 0 0 0 0 0 0 0 0 0 0 0 0 0 0 0.25 0"/>
<feBlend mode="normal" in2="BackgroundImageFix" result="effect1_dropShadow_4470_2820"/>
<feBlend mode="normal" in="SourceGraphic" in2="effect1_dropShadow_4470_2820" result="shape"/>
</filter>
</defs>
</svg>
